# xmcd CD database file
#
# Track frame offsets:
#	150
#	13963
#	24551
#	41673
#	56586
#	68783
#	82756
#	100726
#	116162
#	130502
#
# Disc length: 1896 seconds
#
# Revision: 0
# Processed by: cddbd v1.5.2PL0 Copyright (c) Steve Scherf et al.
# Submitted via: CDex 1.51
#
DISCID=7b07660a
DTITLE=Dick Barnes - Good Ol' Country
DYEAR=2007
DGENRE=Country
TTITLE0=Good Ol' Country
TTITLE1=North Carolina... The Place To Be
TTITLE2=Just A Lonely Child
TTITLE3=Buggerman
TTITLE4=Starting All Over Again
TTITLE5=Fox Hound Boozer
TTITLE6=Love My Blues Away
TTITLE7=Make My Good Girl Bad
TTITLE8=Young Man
TTITLE9=Booze It and Lose It
EXTD=YEAR: 2007
EXTT0=
EXTT1=
EXTT2=
EXTT3=
EXTT4=
EXTT5=
EXTT6=
EXTT7=
EXTT8=
EXTT9=
PLAYORDER=
